<?xml version="1.0" encoding="UTF-8" standalone="no"?>
<!DOCTYPE svg PUBLIC "-//W3C//DTD SVG 1.1//EN" "http://www.w3.org/Graphics/SVG/1.1/DTD/svg11.dtd">
<svg width="100%" height="100%" viewBox="0 0 853 97" version="1.1" xmlns="http://www.w3.org/2000/svg" xmlns:xlink="http://www.w3.org/1999/xlink" xml:space="preserve" xmlns:serif="http://www.serif.com/" style="fill-rule:evenodd;clip-rule:evenodd;stroke-linejoin:round;stroke-miterlimit:2;">
    <g transform="matrix(1,0,0,1,-54.3657,-185.633)">
        <g transform="matrix(1,0,0,1,0,-500)">
            <g>
                <g transform="matrix(0.169499,-0.293581,0.334238,0.192973,-56.1383,834.227)">
                    <path d="M737,362.283C737,339.498 715.94,321 690,321C664.06,321 643,339.498 643,362.283L643,530.717C643,553.502 664.06,572 690,572C715.94,572 737,553.502 737,530.717L737,362.283Z" style="fill:rgb(235,235,235);"/>
                </g>
                <g transform="matrix(-0.169499,-0.293581,0.334238,-0.192973,66.1645,1006.75)">
                    <path d="M737,362.283C737,339.498 715.94,321 690,321C664.06,321 643,339.498 643,362.283L643,530.717C643,553.502 664.06,572 690,572C715.94,572 737,553.502 737,530.717L737,362.283Z" style="fill:rgb(234,67,53);"/>
                </g>
                <g transform="matrix(0.169499,-0.293581,0.334238,0.192973,-167.745,866.612)">
                    <path d="M737,362.283C737,339.498 715.94,321 690,321C664.06,321 643,339.498 643,362.283L643,530.717C643,553.502 664.06,572 690,572C715.94,572 737,553.502 737,530.717L737,362.283Z" style="fill:rgb(66,133,244);"/>
                </g>
                <g transform="matrix(-0.169499,-0.293581,0.334238,-0.192973,177.771,1039.05)">
                    <path d="M737,362.283C737,339.498 715.94,321 690,321C664.06,321 643,339.498 643,362.283L643,530.717C643,553.502 664.06,572 690,572C715.94,572 737,553.502 737,530.717L737,362.283Z" style="fill:rgb(251,188,4);"/>
                </g>
                <g transform="matrix(0.169499,-0.293581,0.334238,0.192973,-56.1383,834.227)">
                    <path d="M737,362.283C737,339.498 715.94,321 690,321C664.06,321 643,339.498 643,362.283L643,530.717C643,553.502 664.06,572 690,572C715.94,572 737,553.502 737,530.717L737,362.283Z" style="fill:rgb(15,157,88);"/>
                </g>
            </g>
            <g transform="matrix(1.7158,0,0,1.7158,-483.955,-545.41)">
                <path d="M753.256,734.454L757.306,734.454L757.306,738.504L757.506,738.504C758.106,737.004 759.122,735.838 760.556,735.004C761.989,734.171 763.556,733.754 765.256,733.754C765.989,733.754 766.606,733.804 767.106,733.904L767.106,738.254C766.539,738.121 765.772,738.054 764.806,738.054C762.639,738.054 760.881,738.771 759.531,740.204C758.181,741.638 757.506,743.504 757.506,745.804L757.506,759.954L753.256,759.954L753.256,734.454ZM782.006,760.354C780.972,760.354 780.014,760.188 779.131,759.854C778.247,759.521 777.506,759.071 776.906,758.504C776.239,757.871 775.739,757.138 775.406,756.304C775.072,755.471 774.906,754.454 774.906,753.254L774.906,738.304L770.456,738.304L770.456,734.454L774.906,734.454L774.906,727.254L779.156,727.254L779.156,734.454L785.356,734.454L785.356,738.304L779.156,738.304L779.156,752.204C779.156,753.604 779.422,754.638 779.956,755.304C780.589,756.038 781.506,756.404 782.706,756.404C783.672,756.404 784.606,756.121 785.506,755.554L785.506,759.704C785.006,759.938 784.497,760.104 783.981,760.204C783.464,760.304 782.806,760.354 782.006,760.354Z" style="fill:rgb(103,108,114);"/>
                <text x="450.006px" y="759.954px" style="font-family:'GoogleSans-Regular', 'Google Sans', sans-serif;font-size:50px;fill:rgb(103,108,114);">GDG <tspan x="575.056px 601.056px 630.856px 661.206px 672.256px 698.806px 723.556px 786.856px " y="759.954px 759.954px 759.954px 759.954px 759.954px 759.954px 759.954px 759.954px ">Jogjakaa</tspan></text>
            </g>
        </g>
    </g>
</svg>
